jumper-scaled_states
version=1
nRows=4
nColumns=111
inDegrees=yes

# SIMM Motion File Header:
name jumper-scaled_states
datacolumns 111
datarows 4
otherdata 1
range 3.56522979 3.56789709
endheader
time	/jointset/ground_pelvis/pelvis_tilt/value	/jointset/ground_pelvis/pelvis_tilt/speed	/jointset/ground_pelvis/pelvis_list/value	/jointset/ground_pelvis/pelvis_list/speed	/jointset/ground_pelvis/pelvis_rotation/value	/jointset/ground_pelvis/pelvis_rotation/speed	/jointset/ground_pelvis/pelvis_tx/value	/jointset/ground_pelvis/pelvis_tx/speed	/jointset/ground_pelvis/pelvis_ty/value	/jointset/ground_pelvis/pelvis_ty/speed	/jointset/ground_pelvis/pelvis_tz/value	/jointset/ground_pelvis/pelvis_tz/speed	/jointset/hip_r/hip_flexion_r/value	/jointset/hip_r/hip_flexion_r/speed	/jointset/hip_r/hip_adduction_r/value	/jointset/hip_r/hip_adduction_r/speed	/jointset/hip_r/hip_rotation_r/value	/jointset/hip_r/hip_rotation_r/speed	/jointset/knee_r/knee_flexion_r/value	/jointset/knee_r/knee_flexion_r/speed	/jointset/ankle_r/ankle_flexion_r/value	/jointset/ankle_r/ankle_flexion_r/speed	/jointset/subtalar_r/subtalar_angle_r/value	/jointset/subtalar_r/subtalar_angle_r/speed	/jointset/mtp_r/mtp_angle_r/value	/jointset/mtp_r/mtp_angle_r/speed	/jointset/hip_l/hip_flexion_l/value	/jointset/hip_l/hip_flexion_l/speed	/jointset/hip_l/hip_adduction_l/value	/jointset/hip_l/hip_adduction_l/speed	/jointset/hip_l/hip_rotation_l/value	/jointset/hip_l/hip_rotation_l/speed	/jointset/knee_l/knee_flexion_l/value	/jointset/knee_l/knee_flexion_l/speed	/jointset/ankle_l/ankle_flexion_l/value	/jointset/ankle_l/ankle_flexion_l/speed	/jointset/subtalar_l/subtalar_angle_l/value	/jointset/subtalar_l/subtalar_angle_l/speed	/jointset/mtp_l/mtp_angle_l/value	/jointset/mtp_l/mtp_angle_l/speed	/jointset/back/lumbar_extension/value	/jointset/back/lumbar_extension/speed	/jointset/back/lumbar_bending/value	/jointset/back/lumbar_bending/speed	/jointset/back/lumbar_rotation/value	/jointset/back/lumbar_rotation/speed	/jointset/acromial_r/arm_flex_r/value	/jointset/acromial_r/arm_flex_r/speed	/jointset/acromial_r/arm_add_r/value	/jointset/acromial_r/arm_add_r/speed	/jointset/acromial_r/arm_rot_r/value	/jointset/acromial_r/arm_rot_r/speed	/jointset/elbow_r/elbow_flex_r/value	/jointset/elbow_r/elbow_flex_r/speed	/jointset/radioulnar_r/pro_sup_r/value	/jointset/radioulnar_r/pro_sup_r/speed	/jointset/radius_hand_r/wrist_flex_r/value	/jointset/radius_hand_r/wrist_flex_r/speed	/jointset/radius_hand_r/wrist_dev_r/value	/jointset/radius_hand_r/wrist_dev_r/speed	/jointset/acromial_l/arm_flex_l/value	/jointset/acromial_l/arm_flex_l/speed	/jointset/acromial_l/arm_add_l/value	/jointset/acromial_l/arm_add_l/speed	/jointset/acromial_l/arm_rot_l/value	/jointset/acromial_l/arm_rot_l/speed	/jointset/elbow_l/elbow_flex_l/value	/jointset/elbow_l/elbow_flex_l/speed	/jointset/radioulnar_l/pro_sup_l/value	/jointset/radioulnar_l/pro_sup_l/speed	/jointset/radius_hand_l/wrist_flex_l/value	/jointset/radius_hand_l/wrist_flex_l/speed	/jointset/radius_hand_l/wrist_dev_l/value	/jointset/radius_hand_l/wrist_dev_l/speed	/forceset/hamstrings_r/activation	/forceset/hamstrings_r/fiber_length	/forceset/bifemsh_r/activation	/forceset/bifemsh_r/fiber_length	/forceset/glut_max_r/activation	/forceset/glut_max_r/fiber_length	/forceset/iliopsoas_r/activation	/forceset/iliopsoas_r/fiber_length	/forceset/rect_fem_r/activation	/forceset/rect_fem_r/fiber_length	/forceset/vasti_r/activation	/forceset/vasti_r/fiber_length	/forceset/gastroc_r/activation	/forceset/gastroc_r/fiber_length	/forceset/soleus_r/activation	/forceset/soleus_r/fiber_length	/forceset/tib_ant_r/activation	/forceset/tib_ant_r/fiber_length	/forceset/hamstrings_l/activation	/forceset/hamstrings_l/fiber_length	/forceset/bifemsh_l/activation	/forceset/bifemsh_l/fiber_length	/forceset/glut_max_l/activation	/forceset/glut_max_l/fiber_length	/forceset/iliopsoas_l/activation	/forceset/iliopsoas_l/fiber_length	/forceset/rect_fem_l/activation	/forceset/rect_fem_l/fiber_length	/forceset/vasti_l/activation	/forceset/vasti_l/fiber_length	/forceset/gastroc_l/activation	/forceset/gastroc_l/fiber_length	/forceset/soleus_l/activation	/forceset/soleus_l/fiber_length	/forceset/tib_ant_l/activation	/forceset/tib_ant_l/fiber_length
      3.56522979	    -14.64158935	    -22.42003811	     -3.53743132	      5.06450095	      3.46529258	      0.24021044	      0.04514448	      0.00656954	      0.47560255	      0.02688585	     -0.00886891	     -0.00990347	     88.19878677	     18.40871609	    -14.18503013	      2.88965051	     -4.23787150	      8.95846022	    117.38825942	    -10.00574190	     43.61370939	     -2.34108102	     -0.00000000	      0.00000000	      0.00000000	      0.00000000	     89.56661118	     11.31772001	     -9.42097535	      5.92317849	      3.06447271	     -8.18473642	    117.40537554	    -13.26895033	     43.24819066	     -3.02619784	     -0.00000000	     -0.00000000	      0.00000000	      0.00000000	    -24.37565979	     10.78597795	      3.76597011	     -6.52408701	      5.78962454	     -2.07894480	      0.00000000	      0.00000000	      0.00000000	      0.00000000	      0.00000000	      0.00000000	      0.00000000	      0.00000000	      0.00000000	      0.00000000	      0.00000000	      0.00000000	      0.00000000	      0.00000000	     -0.00000000	     -0.00000000	      0.00000000	     -0.00000000	     -0.00000000	     -0.00000000	      0.00000000	     -0.00000000	     -0.00000000	     -0.00000000	     -0.00000000	     -0.00000000	     -0.00000000	     -0.00000000	      0.03020660	      0.12578007	      0.05274626	      0.11820687	      0.02000000	      0.17878534	      0.99998525	      0.04357646	      0.11325903	      0.09242178	      0.18633839	      0.12979364	      0.02000000	      0.07314470	      0.02000000	      0.05950847	      1.00000000	      0.04777110	      0.02623761	      0.12464633	      0.04617686	      0.11727343	      0.02000000	      0.17919560	      0.02000000	      0.04336183	      0.03201104	      0.09103140	      0.23484828	      0.12793064	      0.02000000	      0.06799152	      0.02000000	      0.05693413	      1.00000000	      0.04634584
      3.56617064	    -14.66284497	    -22.75222283	     -3.53260817	      5.18852644	      3.46551471	      0.23543167	      0.04515065	      0.00654337	      0.47562843	      0.02813837	     -0.00887822	     -0.00988246	     88.21619766	     18.58974902	    -14.18230608	      2.89718187	     -4.22938389	      9.08327109	    117.37871562	    -10.27812556	     43.61140322	     -2.62855823	     -0.00000000	     -0.00000000	      0.00000000	      0.00000000	     89.57729441	     11.37741566	     -9.41534626	      6.04484288	      3.05670035	     -8.33535826	    117.39274221	    -13.58956037	     43.24510536	     -3.48949526	     -0.00000000	     -0.00000000	      0.00000000	      0.00000000	    -24.36536237	     11.09019772	      3.75976982	     -6.65475333	      5.78761802	     -2.18863020	      0.00000000	      0.00000000	      0.00000000	      0.00000000	      0.00000000	      0.00000000	      0.00000000	      0.00000000	      0.00000000	      0.00000000	      0.00000000	      0.00000000	      0.00000000	      0.00000000	     -0.00000000	     -0.00000000	      0.00000000	     -0.00000000	     -0.00000000	     -0.00000000	      0.00000000	     -0.00000000	     -0.00000000	     -0.00000000	     -0.00000000	     -0.00000000	     -0.00000000	     -0.00000000	      0.03007654	      0.12579050	      0.05230348	      0.11820937	      0.02000000	      0.17879146	      0.99998593	      0.04357156	      0.11212590	      0.09243109	      0.18733775	      0.12978551	      0.02000000	      0.07314572	      0.02000000	      0.05950791	      1.00000000	      0.04777107	      0.02653218	      0.12464359	      0.04582886	      0.11727566	      0.02000000	      0.17920091	      0.02000000	      0.04335936	      0.03185724	      0.09102733	      0.23573673	      0.12792230	      0.02000000	      0.06799259	      0.02000000	      0.05693344	      1.00000000	      0.04634604
      3.56711149	    -14.68438097	    -23.01718007	     -3.52766745	      5.31494562	      3.46574345	      0.25433577	      0.04515680	      0.00653872	      0.47565554	      0.02952556	     -0.00888752	     -0.00989295	     88.23374497	     18.69829610	    -14.17958712	      2.87870189	     -4.22078177	      9.20072836	    117.36892913	    -10.52612029	     43.60860621	     -3.30922185	     -0.00000000	      0.00000000	      0.00000000	      0.00000000	     89.58799167	     11.34815360	     -9.40959693	      6.17960618	      3.04878468	     -8.49478269	    117.37978956	    -13.95022370	     43.24170438	     -3.71774038	     -0.00000000	     -0.00000000	      0.00000000	      0.00000000	    -24.35481579	     11.31675742	      3.75345083	     -6.77676629	      5.78550052	     -2.31519863	      0.00000000	      0.00000000	      0.00000000	      0.00000000	      0.00000000	      0.00000000	      0.00000000	      0.00000000	      0.00000000	      0.00000000	      0.00000000	      0.00000000	      0.00000000	      0.00000000	     -0.00000000	     -0.00000000	      0.00000000	     -0.00000000	     -0.00000000	     -0.00000000	      0.00000000	     -0.00000000	     -0.00000000	     -0.00000000	     -0.00000000	     -0.00000000	     -0.00000000	     -0.00000000	      0.02994819	      0.12580105	      0.05186719	      0.11821185	      0.02000000	      0.17879764	      0.99998658	      0.04356658	      0.11101324	      0.09244039	      0.18822209	      0.12977751	      0.02000000	      0.07314667	      0.02000000	      0.05950724	      1.00000000	      0.04777109	      0.02677945	      0.12464137	      0.04548579	      0.11727789	      0.02000000	      0.17920627	      0.02000000	      0.04335690	      0.03170548	      0.09102301	      0.23653128	      0.12791402	      0.02000000	      0.06799358	      0.02000000	      0.05693263	      1.00000000	      0.04634629
      3.56789709	    -14.70253475	    -23.19187828	     -3.52344897	      5.42506841	      3.46595348	      0.28153402	      0.04516194	      0.00654534	      0.47567922	      0.03078247	     -0.00889530	     -0.00992897	     88.24844809	     18.72225028	    -14.17733624	      2.85031405	     -4.21351831	      9.28946563	    117.36056850	    -10.76621684	     43.60591386	     -3.46026889	     -0.00000000	      0.00000000	      0.00000000	      0.00000000	     89.59687754	     11.26555753	     -9.40469309	      6.30615489	      3.04205321	     -8.64485802	    117.36870843	    -14.25884641	     43.23871171	     -3.91890050	     -0.00000000	     -0.00000000	      0.00000000	      0.00000000	    -24.34586932	     11.45103319	      3.74808775	     -6.87631803	      5.78363738	     -2.42862372	      0.00000000	      0.00000000	      0.00000000	      0.00000000	      0.00000000	      0.00000000	      0.00000000	      0.00000000	      0.00000000	      0.00000000	      0.00000000	      0.00000000	      0.00000000	      0.00000000	     -0.00000000	     -0.00000000	      0.00000000	     -0.00000000	     -0.00000000	     -0.00000000	      0.00000000	     -0.00000000	     -0.00000000	     -0.00000000	     -0.00000000	     -0.00000000	     -0.00000000	     -0.00000000	      0.02984230	      0.12580994	      0.05150776	      0.11821392	      0.02000000	      0.17880282	      0.99998709	      0.04356239	      0.11009953	      0.09244812	      0.18888225	      0.12977096	      0.02000000	      0.07314737	      0.02000000	      0.05950658	      1.00000000	      0.04777115	      0.02695525	      0.12463993	      0.04520305	      0.11727975	      0.02000000	      0.17921078	      0.02000000	      0.04335486	      0.03158029	      0.09101923	      0.23713016	      0.12790716	      0.02000000	      0.06799435	      0.02000000	      0.05693186	      1.00000000	      0.04634654
